<svg width="648" height="633" viewBox="0 0 648 633" fill="none" xmlns="http://www.w3.org/2000/svg">
<g clip-path="url(#clip0_369_301)">
<path d="M411.146 142.173H236.637C232.66 142.178 228.847 143.759 226.035 146.571C223.223 149.383 221.641 153.196 221.637 157.173V545.023L219.637 545.633L176.827 558.743C174.798 559.361 172.606 559.15 170.733 558.154C168.86 557.159 167.459 555.461 166.837 553.433L39.4965 137.483C38.8768 135.454 39.0881 133.262 40.0838 131.389C41.0795 129.515 42.7782 128.114 44.8066 127.493L110.777 107.293L302.027 48.7527L367.997 28.5527C369 28.2437 370.056 28.1357 371.101 28.2349C372.147 28.3342 373.163 28.6386 374.091 29.1309C375.019 29.6232 375.84 30.2936 376.509 31.1038C377.177 31.9141 377.68 32.8482 377.987 33.8527L410.537 140.173L411.146 142.173Z" fill="#C0CC9A"/>
<path d="M449.226 140.174L409.996 12.0335C409.344 9.89845 408.277 7.91293 406.856 6.19041C405.436 4.46788 403.69 3.04212 401.718 1.99458C399.747 0.947035 397.588 0.298239 395.366 0.0852906C393.143 -0.127658 390.901 0.0994124 388.766 0.753503L296.016 29.1435L104.776 87.6935L12.0265 116.094C7.71782 117.417 4.1101 120.395 1.99524 124.375C-0.119617 128.356 -0.568843 133.012 0.746189 137.324L134.826 575.254C135.895 578.734 138.05 581.78 140.977 583.945C143.903 586.11 147.446 587.28 151.087 587.284C152.771 587.284 154.447 587.032 156.056 586.534L219.636 567.074L221.636 566.454V564.364L219.636 564.974L155.466 584.624C151.663 585.783 147.555 585.386 144.044 583.521C140.533 581.656 137.905 578.474 136.736 574.674L2.6666 136.734C2.08769 134.85 1.88592 132.872 2.07285 130.91C2.25977 128.949 2.8317 127.044 3.75592 125.304C4.68014 123.565 5.9385 122.024 7.4589 120.771C8.97929 119.519 10.7319 118.578 12.6163 118.004L105.366 89.6035L296.607 31.0635L389.357 2.66352C390.786 2.22732 392.272 2.00491 393.766 2.00352C396.973 2.01072 400.094 3.04468 402.671 4.95394C405.248 6.86321 407.146 9.54746 408.087 12.6135L447.136 140.174L447.756 142.174H449.837L449.226 140.174Z" fill="#EBE0D9"/>
<path d="M122.681 127.821C120.754 127.82 118.878 127.201 117.328 126.055C115.778 124.909 114.636 123.297 114.07 121.455L101.189 79.383C100.843 78.2529 100.723 77.0656 100.836 75.8891C100.949 74.7126 101.292 73.5698 101.847 72.526C102.401 71.4822 103.156 70.5578 104.068 69.8058C104.979 69.0537 106.03 68.4886 107.161 68.1427L283.1 14.279C285.382 13.5825 287.847 13.82 289.955 14.9394C292.062 16.0588 293.64 17.9686 294.34 20.2497L307.221 62.3219C307.917 64.6043 307.679 67.0696 306.56 69.1769C305.44 71.2842 303.531 72.8615 301.25 73.5627L125.311 127.426C124.459 127.688 123.572 127.821 122.681 127.821Z" fill="#FFB870"/>
<path d="M190.153 44.9531C201.199 44.9531 210.153 35.9988 210.153 24.9531C210.153 13.9074 201.199 4.95312 190.153 4.95312C179.108 4.95312 170.153 13.9074 170.153 24.9531C170.153 35.9988 179.108 44.9531 190.153 44.9531Z" fill="#FFB870"/>
<path d="M190.154 37.6183C197.148 37.6183 202.818 31.9482 202.818 24.9537C202.818 17.9592 197.148 12.2891 190.154 12.2891C183.159 12.2891 177.489 17.9592 177.489 24.9537C177.489 31.9482 183.159 37.6183 190.154 37.6183Z" fill="#201B16"/>
<path d="M602.637 582.172H264.637C262.383 582.169 260.223 581.273 258.629 579.679C257.036 578.086 256.139 575.925 256.137 573.672V168.672C256.139 166.418 257.036 164.258 258.629 162.664C260.223 161.071 262.383 160.174 264.637 160.172H602.637C604.89 160.174 607.051 161.071 608.644 162.664C610.238 164.258 611.134 166.418 611.137 168.672V573.672C611.134 575.925 610.238 578.086 608.644 579.679C607.051 581.273 604.89 582.169 602.637 582.172Z" fill="#E1C1A4"/>
<path d="M447.137 140.172H236.637C232.13 140.178 227.81 141.971 224.623 145.158C221.436 148.345 219.643 152.665 219.637 157.172V564.972L221.637 564.362V157.172C221.642 153.195 223.223 149.383 226.035 146.571C228.847 143.759 232.66 142.177 236.637 142.172H447.757L447.137 140.172ZM630.637 140.172H236.637C232.13 140.178 227.81 141.971 224.623 145.158C221.436 148.345 219.643 152.665 219.637 157.172V615.172C219.643 619.679 221.436 623.999 224.623 627.186C227.81 630.372 232.13 632.165 236.637 632.172H630.637C635.143 632.165 639.464 630.372 642.651 627.186C645.837 623.999 647.63 619.679 647.637 615.172V157.172C647.63 152.665 645.837 148.345 642.651 145.158C639.464 141.971 635.143 140.178 630.637 140.172ZM645.637 615.172C645.632 619.149 644.05 622.961 641.238 625.773C638.426 628.585 634.613 630.167 630.637 630.172H236.637C232.66 630.167 228.847 628.585 226.035 625.773C223.223 622.961 221.642 619.149 221.637 615.172V157.172C221.642 153.195 223.223 149.383 226.035 146.571C228.847 143.759 232.66 142.177 236.637 142.172H630.637C634.613 142.177 638.426 143.759 641.238 146.571C644.05 149.383 645.632 153.195 645.637 157.172V615.172Z" fill="#EBE0D9"/>
<path d="M525.637 184.172H341.637C339.251 184.169 336.963 183.22 335.276 181.533C333.588 179.846 332.639 177.558 332.637 175.172V131.172C332.639 128.786 333.589 126.498 335.276 124.811C336.963 123.124 339.251 122.175 341.637 122.172H525.637C528.023 122.175 530.31 123.124 531.998 124.811C533.685 126.498 534.634 128.786 534.637 131.172V175.172C534.634 177.558 533.685 179.846 531.998 181.533C530.31 183.22 528.023 184.169 525.637 184.172Z" fill="#FFB870"/>
<path d="M433.637 125.172C444.682 125.172 453.637 116.218 453.637 105.172C453.637 94.1262 444.682 85.1719 433.637 85.1719C422.591 85.1719 413.637 94.1262 413.637 105.172C413.637 116.218 422.591 125.172 433.637 125.172Z" fill="#FFB870"/>
<path d="M433.636 117.356C440.364 117.356 445.818 111.902 445.818 105.174C445.818 98.4462 440.364 92.9922 433.636 92.9922C426.908 92.9922 421.454 98.4462 421.454 105.174C421.454 111.902 426.908 117.356 433.636 117.356Z" fill="#201B16"/>
</g>
<defs>
<clipPath id="clip0_369_301">
<rect width="647.636" height="632.174" fill="white"/>
</clipPath>
</defs>
</svg>
